<svg width="65" height="25" viewBox="0 0 65 25" fill="none" xmlns="http://www.w3.org/2000/svg">
<g clip-path="url(#clip0_165_38)">
<path d="M3.5 14.5H1H-1V16V17H3C3 17.7956 3.31607 18.5587 3.87868 19.1213C4.44129 19.6839 5.20435 20 6 20C6.79565 20 7.55871 19.6839 8.12132 19.1213C8.68393 18.5587 9 17.7956 9 17H15C15 17.7956 15.3161 18.5587 15.8787 19.1213C16.4413 19.6839 17.2044 20 18 20C18.7956 20 19.5587 19.6839 20.1213 19.1213C20.6839 18.5587 21 17.7956 21 17H23V13C23 11.89 22.11 11 21 11L18 7H13.5V14.5H3.5ZM15 8.5H17.5L19.46 11H15V8.5ZM6 15.5C6.39782 15.5 6.77936 15.658 7.06066 15.9393C7.34196 16.2206 7.5 16.6022 7.5 17C7.5 17.3978 7.34196 17.7794 7.06066 18.0607C6.77936 18.342 6.39782 18.5 6 18.5C5.60218 18.5 5.22064 18.342 4.93934 18.0607C4.65804 17.7794 4.5 17.3978 4.5 17C4.5 16.6022 4.65804 16.2206 4.93934 15.9393C5.22064 15.658 5.60218 15.5 6 15.5ZM18 15.5C18.3978 15.5 18.7794 15.658 19.0607 15.9393C19.342 16.2206 19.5 16.6022 19.5 17C19.5 17.3978 19.342 17.7794 19.0607 18.0607C18.7794 18.342 18.3978 18.5 18 18.5C17.6022 18.5 17.2206 18.342 16.9393 18.0607C16.658 17.7794 16.5 17.3978 16.5 17C16.5 16.6022 16.658 16.2206 16.9393 15.9393C17.2206 15.658 17.6022 15.5 18 15.5Z" fill="white"/>
<path d="M3.5 14.5H1H-1V16V17H3C3 17.7956 3.31607 18.5587 3.87868 19.1213C4.44129 19.6839 5.20435 20 6 20C6.79565 20 7.55871 19.6839 8.12132 19.1213C8.68393 18.5587 9 17.7956 9 17H15C15 17.7956 15.3161 18.5587 15.8787 19.1213C16.4413 19.6839 17.2044 20 18 20C18.7956 20 19.5587 19.6839 20.1213 19.1213C20.6839 18.5587 21 17.7956 21 17H23V13C23 11.89 22.11 11 21 11L18 7H13.5V14.5H3.5ZM15 8.5H17.5L19.46 11H15V8.5ZM6 15.5C6.39782 15.5 6.77936 15.658 7.06066 15.9393C7.34196 16.2206 7.5 16.6022 7.5 17C7.5 17.3978 7.34196 17.7794 7.06066 18.0607C6.77936 18.342 6.39782 18.5 6 18.5C5.60218 18.5 5.22064 18.342 4.93934 18.0607C4.65804 17.7794 4.5 17.3978 4.5 17C4.5 16.6022 4.65804 16.2206 4.93934 15.9393C5.22064 15.658 5.60218 15.5 6 15.5ZM18 15.5C18.3978 15.5 18.7794 15.658 19.0607 15.9393C19.342 16.2206 19.5 16.6022 19.5 17C19.5 17.3978 19.342 17.7794 19.0607 18.0607C18.7794 18.342 18.3978 18.5 18 18.5C17.6022 18.5 17.2206 18.342 16.9393 18.0607C16.658 17.7794 16.5 17.3978 16.5 17C16.5 16.6022 16.658 16.2206 16.9393 15.9393C17.2206 15.658 17.6022 15.5 18 15.5Z" fill="white"/>
</g>
<path d="M4.37059 8.29158L9.82478 8.27965L12.559 11.5462L12.5626 13.1825L11.4718 13.1848C11.4727 13.6188 11.3012 14.0354 10.9951 14.3429C10.6889 14.6504 10.2731 14.8237 9.8391 14.8247C9.40514 14.8256 8.98857 14.6541 8.68105 14.348C8.37352 14.0418 8.20022 13.626 8.19927 13.192L4.92675 13.1992C4.9277 13.6331 4.75622 14.0497 4.45003 14.3572C4.14385 14.6647 3.72804 14.838 3.29407 14.839C2.86011 14.8399 2.44355 14.6685 2.13602 14.3623C1.82849 14.0561 1.65519 13.6403 1.65424 13.2063L0.563398 13.2087L0.559819 11.5724C0.558494 10.967 1.04286 10.4805 1.64827 10.4792L2.73911 10.4768L4.37059 8.29158ZM9.55386 9.09837L7.37219 9.10315L7.37517 10.4667L10.6477 10.4595L9.55386 9.09837ZM6.55406 9.10494L4.64509 9.10911L3.57905 10.475L6.55704 10.4685L6.55406 9.10494ZM9.83373 12.3703C9.61675 12.3708 9.40885 12.4574 9.25575 12.6112C9.10266 12.7649 9.01692 12.9732 9.01739 13.1902C9.01787 13.4072 9.10452 13.6151 9.25828 13.7682C9.41205 13.9213 9.62033 14.007 9.83731 14.0065C10.0543 14.0061 10.2622 13.9194 10.4153 13.7657C10.5684 13.6119 10.6541 13.4036 10.6537 13.1866C10.6532 12.9696 10.5665 12.7617 10.4128 12.6086C10.259 12.4556 10.0507 12.3698 9.83373 12.3703ZM3.2887 12.3846C3.07172 12.3851 2.86382 12.4717 2.71072 12.6255C2.55763 12.7793 2.47189 12.9875 2.47237 13.2045C2.47284 13.4215 2.55949 13.6294 2.71326 13.7825C2.86702 13.9356 3.0753 14.0213 3.29228 14.0209C3.50926 14.0204 3.71717 13.9337 3.87026 13.78C4.02336 13.6262 4.1091 13.4179 4.10862 13.2009C4.10815 12.984 4.0215 12.7761 3.86773 12.623C3.71397 12.4699 3.50569 12.3841 3.2887 12.3846Z" fill="white"/>
<path d="M26.496 7.432L30.304 17L29.424 16.824L33.04 7.432H34.848L29.744 19.528L24.656 7.432H26.496ZM37.164 7.432H44.684V8.92H38.716V12.44H44.044V13.928H38.716V17.512H44.908V19H37.164V7.432ZM50.1135 16.904C50.1135 17.8427 49.9322 18.6427 49.5695 19.304C49.2175 19.9653 48.7322 20.4667 48.1135 20.808C47.4948 21.16 46.7855 21.352 45.9855 21.384V19.88C46.7322 19.8373 47.3455 19.5707 47.8255 19.08C48.3162 18.6 48.5615 17.8587 48.5615 16.856V7.432H50.1135V16.904ZM63.4613 19.368L54.5173 10.296L54.9653 10.408L54.9973 19H53.4453V7.08H53.5253L62.3733 16.184L62.0053 16.104L61.9733 7.432H63.5093V19.368H63.4613Z" fill="white"/>
<defs>
<clipPath id="clip0_165_38">
<rect width="24" height="24" fill="white"/>
</clipPath>
</defs>
</svg>
