<svg width="16" height="16" viewBox="0 0 16 16" fill="none" xmlns="http://www.w3.org/2000/svg">
<g clip-path="url(#clip0_16_3)">
<mask id="mask0_16_3" style="mask-type:luminance" maskUnits="userSpaceOnUse" x="1" y="0" width="16" height="15">
<path d="M16.0268 0H1V15H16.0268V0Z" fill="white"/>
</mask>
<g mask="url(#mask0_16_3)">
<path d="M3.19119 9.06213H1.62589H0.373657V9.99963V10.6246H2.87813C2.87813 11.1219 3.07603 11.5988 3.42829 11.9504C3.78055 12.3021 4.25831 12.4996 4.75648 12.4996C5.25465 12.4996 5.73242 12.3021 6.08468 11.9504C6.43694 11.5988 6.63484 11.1219 6.63484 10.6246H10.3915C10.3915 11.1219 10.5895 11.5988 10.9417 11.9504C11.294 12.3021 11.7718 12.4996 12.2699 12.4996C12.768 12.4996 13.2458 12.3021 13.5981 11.9504C13.9503 11.5988 14.1483 11.1219 14.1483 10.6246H15.4005V8.12463C15.4005 7.43088 14.8432 6.87463 14.1483 6.87463L12.2699 4.37463H9.45237V9.06213H3.19119ZM10.3915 5.31213H11.9568L13.184 6.87463H10.3915V5.31213ZM4.75648 9.68713C5.00557 9.68713 5.24446 9.78588 5.42058 9.9617C5.59671 10.1375 5.69566 10.376 5.69566 10.6246C5.69566 10.8733 5.59671 11.1118 5.42058 11.2876C5.24446 11.4634 5.00557 11.5621 4.75648 11.5621C4.5074 11.5621 4.26851 11.4634 4.09239 11.2876C3.91626 11.1118 3.81731 10.8733 3.81731 10.6246C3.81731 10.376 3.91626 10.1375 4.09239 9.9617C4.26851 9.78588 4.5074 9.68713 4.75648 9.68713ZM12.2699 9.68713C12.519 9.68713 12.7579 9.78588 12.934 9.9617C13.1102 10.1375 13.2091 10.376 13.2091 10.6246C13.2091 10.8733 13.1102 11.1118 12.934 11.2876C12.7579 11.4634 12.519 11.5621 12.2699 11.5621C12.0208 11.5621 11.7819 11.4634 11.6058 11.2876C11.4297 11.1118 11.3307 10.8733 11.3307 10.6246C11.3307 10.376 11.4297 10.1375 11.6058 9.9617C11.7819 9.78588 12.0208 9.68713 12.2699 9.68713Z" fill="white"/>
<path d="M3.19119 9.06213H1.62589H0.373657V9.99963V10.6246H2.87813C2.87813 11.1219 3.07603 11.5988 3.42829 11.9504C3.78055 12.3021 4.25831 12.4996 4.75648 12.4996C5.25465 12.4996 5.73242 12.3021 6.08468 11.9504C6.43694 11.5988 6.63484 11.1219 6.63484 10.6246H10.3915C10.3915 11.1219 10.5895 11.5988 10.9417 11.9504C11.294 12.3021 11.7718 12.4996 12.2699 12.4996C12.768 12.4996 13.2458 12.3021 13.5981 11.9504C13.9503 11.5988 14.1483 11.1219 14.1483 10.6246H15.4005V8.12463C15.4005 7.43088 14.8432 6.87463 14.1483 6.87463L12.2699 4.37463H9.45237V9.06213H3.19119ZM10.3915 5.31213H11.9568L13.184 6.87463H10.3915V5.31213ZM4.75648 9.68713C5.00557 9.68713 5.24446 9.78588 5.42058 9.9617C5.59671 10.1375 5.69566 10.376 5.69566 10.6246C5.69566 10.8733 5.59671 11.1118 5.42058 11.2876C5.24446 11.4634 5.00557 11.5621 4.75648 11.5621C4.5074 11.5621 4.26851 11.4634 4.09239 11.2876C3.91626 11.1118 3.81731 10.8733 3.81731 10.6246C3.81731 10.376 3.91626 10.1375 4.09239 9.9617C4.26851 9.78588 4.5074 9.68713 4.75648 9.68713ZM12.2699 9.68713C12.519 9.68713 12.7579 9.78588 12.934 9.9617C13.1102 10.1375 13.2091 10.376 13.2091 10.6246C13.2091 10.8733 13.1102 11.1118 12.934 11.2876C12.7579 11.4634 12.519 11.5621 12.2699 11.5621C12.0208 11.5621 11.7819 11.4634 11.6058 11.2876C11.4297 11.1118 11.3307 10.8733 11.3307 10.6246C11.3307 10.376 11.4297 10.1375 11.6058 9.9617C11.7819 9.78588 12.0208 9.68713 12.2699 9.68713Z" fill="white"/>
</g>
<path d="M3.05743 4.20905L7.14712 4.19995L9.19731 6.68995L9.20001 7.93725L8.3821 7.939C8.38278 8.26983 8.25418 8.58739 8.02466 8.82179C7.79506 9.05618 7.48329 9.18829 7.15786 9.18905C6.83247 9.18973 6.52011 9.059 6.28953 8.82567C6.05893 8.59227 5.92899 8.27532 5.92827 7.94449L3.47445 7.94998C3.47517 8.28073 3.34658 8.59829 3.117 8.83269C2.88741 9.06708 2.57563 9.19919 2.25023 9.19995C1.92483 9.20063 1.61248 9.06998 1.38189 8.83657C1.1513 8.60317 1.02135 8.28622 1.02064 7.95539L0.202698 7.95722L0.200014 6.70992C0.199021 6.24844 0.562211 5.87759 1.01616 5.8766L1.8341 5.87477L3.05743 4.20905ZM6.94398 4.82404L5.30811 4.82768L5.31034 5.86707L7.76417 5.86159L6.94398 4.82404ZM4.69465 4.82905L3.26326 4.83222L2.46391 5.8734L4.69689 5.86845L4.69465 4.82905ZM7.15383 7.31813C6.99114 7.31851 6.83525 7.38453 6.72045 7.50176C6.60566 7.61892 6.54137 7.7777 6.54172 7.94312C6.54208 8.10853 6.60705 8.26701 6.72235 8.38371C6.83765 8.50041 6.99382 8.56574 7.15652 8.56536C7.31922 8.56505 7.47511 8.49897 7.58991 8.3818C7.70471 8.26457 7.76897 8.10579 7.76867 7.94037C7.76829 7.77496 7.70328 7.61648 7.58804 7.49978C7.47271 7.38315 7.31652 7.31775 7.15383 7.31813ZM2.2462 7.32903C2.0835 7.32941 1.92761 7.39543 1.81282 7.51266C1.69803 7.6299 1.63373 7.78861 1.63409 7.95402C1.63445 8.11943 1.69942 8.27791 1.81472 8.39461C1.93001 8.51131 2.08619 8.57664 2.24888 8.57634C2.41158 8.57595 2.56748 8.50987 2.68227 8.3927C2.79707 8.27547 2.86136 8.11669 2.861 7.95127C2.86065 7.78594 2.79567 7.62746 2.68037 7.51076C2.56508 7.39405 2.40891 7.32865 2.2462 7.32903Z" fill="white"/>
</g>
<defs>
<clipPath id="clip0_16_3">
<rect width="16" height="16" fill="white"/>
</clipPath>
</defs>
</svg>
